<svg xmlns="http://www.w3.org/2000/svg" viewBox="0 0 644.19 58.61"><defs><style>.cls-1{fill:#e2007f;}.cls-2{fill:#160035;}</style></defs><title>アセット 1</title><g id="レイヤー_2" data-name="レイヤー 2"><g id="レイヤー_1-2" data-name="レイヤー 1"><path class="cls-1" d="M587.5,20.33a5.29,5.29,0,0,1,2.5,2.55,1,1,0,0,1-.11,1.05,13.9,13.9,0,0,0-1,2.1,2.94,2.94,0,0,0-.11.75,25.53,25.53,0,0,1-1.32,4.66,43.45,43.45,0,0,1-4.16,8.86,11,11,0,0,1-2.86,3.3c-1.11.6-2.42-.19-3.93-2.4-1.82-2.71-2.19-6.49-1.08-10.6,2.21-8.4,7.77-12,13.35-11.78A13.79,13.79,0,0,1,597,22a11.44,11.44,0,0,1,4.17,7.67,12.88,12.88,0,0,1-3.05,10.57,14.93,14.93,0,0,1-7.91,4.89c-2,.5-3.06.64-3.22.45s.09-.4.73-.6a14.61,14.61,0,0,0,8-6.41c1.83-3,2.3-6.35,1.42-10.85a8.58,8.58,0,0,0-4.63-6.46,8.73,8.73,0,0,0-5-.9m-2.26.6c-2.53.9-4.61,3.56-6.19,8a21.77,21.77,0,0,0-1.19,7.21,8.17,8.17,0,0,0,.24,2.39c.24.9.63,1.31,1.19,1.2,1.27-.19,2.5-1.7,3.69-4.5a41.62,41.62,0,0,0,2-6.3L586,25a7,7,0,0,0,.24-3,1.27,1.27,0,0,0-1-1.05"/><path class="cls-1" d="M502.94,22.88H487.81l-.61-1.34h10.54V15.37H490L489.49,14h8.25V7.28l4.44.57a.92.92,0,0,1,.43,1.48,8.15,8.15,0,0,1-.89,1V14h6.87V7.28l4.28.57a1,1,0,0,1,.5,1.61,5.22,5.22,0,0,1-.8.9V14h2.6l2.29-3.66,3,3.47c.62.76.51,1.28-.3,1.54h-7.64v6.17H517l2.59-4.24s3.61,4.17,3.72,4.32c.35.46.18.89-.51,1.26H507.22v4.63h6.42l1.23-2.7,4,3.86c.62.51.52,1-.3,1.54l-.76.39V40.81a2,2,0,0,1-.46,1.55,3.69,3.69,0,0,1-1.68.58c-1.23.25-1.84,0-1.84-.77v-.78H496.37v1a1.2,1.2,0,0,1-1.07,1.34l-1.38.39c-1,.26-1.53-.13-1.53-1.15V25.59l4.29,1.92h6.26ZM500.8,46.79a57.4,57.4,0,0,1-6.57,3.27,25.73,25.73,0,0,1-5.65,1.74c-.92.12-1.11-.08-1.08-.38s.66-.54.9-.66c.88-.44,1.94-1.11,2.29-1.32A32.53,32.53,0,0,0,499,42l3.83,3.28c.76.67.59,1.37-.31,1.54Zm-4.43-13.11h6.57V28.87h-6.57Zm0,6.36h6.57V35h-6.57Zm5.35-18.5h6.87V15.37h-6.87Zm7.64,21a27.38,27.38,0,0,1,5.81.78,8.68,8.68,0,0,1,4.74,3.08c1.11,1.55,1.32,2.9.6,4.05q-1.37,2.31-3,.58-.91-1-2.9-3.27A17.72,17.72,0,0,0,508,43.55a2.75,2.75,0,0,1-.9-.49c-.12-.18.05-.32.5-.4a9.74,9.74,0,0,1,1.79-.12m-2.14-8.86h6.57V28.87h-6.57Zm0,6.36h6.57V35h-6.57Z"/><path class="cls-1" d="M538.74,25.59a37.71,37.71,0,0,1-6.88,5.2,7.89,7.89,0,0,1-1.54.58c-.58.1-.75-.4,0-1a6.43,6.43,0,0,0,.77-.58,31.94,31.94,0,0,0,5.51-6.17Q541.34,17.3,545,6.51l5.5,2.31c1,.51,1.07,1.23.15,2.12l-.46.38c.51.77,1.18,1.67,2,2.7a26.31,26.31,0,0,0,4.74,4.44A35,35,0,0,0,567,23.27a10.58,10.58,0,0,0-2.76,2.32,9.81,9.81,0,0,0-1.83,3.08q-2.59-1.74-3.51-2.5a32.35,32.35,0,0,1-5.82-6.55,57,57,0,0,1-4.12-8.1c-1.32,2.31-2.6,4.37-3.82,6.16a43.74,43.74,0,0,1-6.11,7.52h12.07l2.29-3.85L556.77,25c.65.77.53,1.48-.3,1.54H550.2V33.3H558l2.61-4.43,3.82,4c.76.79.62,1.64-.46,1.74H550.2V48.71H552a112.18,112.18,0,0,0,3.82-13.49l4.58,3.67c.87.76.8,1.24-.3,1.73l-1.07.38A96.7,96.7,0,0,1,553,48.71h6.12l2.75-4.43,3.66,4c.75.83.65,1.61-.3,1.73H531.4l-.31-1.35h14.53V34.65H532l-.3-1.35h13.91V26.55h-6.57Zm-3.67,11.17c-.38-.57-.31-.86.22-.86a7.29,7.29,0,0,1,2.08.7,10.83,10.83,0,0,1,1.83,1.13,7.81,7.81,0,0,1,2.14,2.89,9.7,9.7,0,0,1,.81,2.91,5.23,5.23,0,0,1-.48,3.4,1.66,1.66,0,0,1-1.56.83c-.81,0-1.47-.52-2-1.54-.52-4.65-1.64-7.65-2.75-9.07Z"/><path class="cls-1" d="M615.39,12.48V21q0,7.14-.46,12.34a37.86,37.86,0,0,1-2.75,12.14,26.58,26.58,0,0,1-2.78,4.81,16.87,16.87,0,0,1-1.81,2.17c-.53.52-.89.28-.61-.43a42.45,42.45,0,0,0,3.37-11.37,84.24,84.24,0,0,0,.91-11.37c.1-3,.1-6.74,0-11.37l-.15-9.83,5.2,3.08h17.88l1.69-3.47,4,4.24a1.59,1.59,0,0,1-.46,2.69l-.77.39v2.51q0,14.46.16,16a45.84,45.84,0,0,0,2,9.25,59.19,59.19,0,0,0,2-6.17c.2-.8.42-1.16.73-1s.22.37.19.86-.31,2-.62,5.12a16,16,0,0,0,.31,5.49c.41,1.41.67,2.37.77,2.88.2,1.16-.1,1.86-.92,2.12-1.43.51-2.85-.32-4.28-2.5a22,22,0,0,1-3-7.91,63.28,63.28,0,0,1-1.08-9.44q-.3-5.4,0-19.66ZM626.55,35.8v8.29c1.22-.13,2.39-.25,3.51-.39a9,9,0,0,0-1.84-3c-.66-.75-.83-1.16-.31-1.18a5.94,5.94,0,0,1,1.93.55,11.39,11.39,0,0,1,3.29,2.13,7.2,7.2,0,0,1,2.44,5c.1,1.67-.31,2.69-1.23,3.08-1.32.64-2.23.06-2.75-1.74l-.91-3.27-5.81,1.93-6.42,1.73-.46,1q-1.08,1.93-2.14,0l-2.45-5.4q4.89,0,9.48-.19V35.8h-2.45v2.89c0,.65-.61,1-1.83,1.16s-1.84-.06-1.84-.58V23.09l4.44,2.69h1.68v-5.2a56.73,56.73,0,0,1-6.23.2c-.43-.06-.65-.2-.65-.4s.26-.45.76-.58l2.76-1a36.9,36.9,0,0,0,10.39-5.39l3.22,3.65c.6.78.54,1.38-.31,1.55h-1.53c-1.53.38-3.11.71-4.74,1v6.16h2.3l1.37-2.9,3.2,3.67c.62.64.51,1.28-.29,1.92l-.31.2v8.86a1,1,0,0,1-.79,1,6.7,6.7,0,0,1-1.92.2c-.64,0-1-.22-1-.62V35.8Zm-6.12-1.34h2.45V27.13h-2.45Zm6.12,0h2.6V27.13h-2.6Z"/><path class="cls-2" d="M311.31,31.75A3.69,3.69,0,0,1,313,33.46a.7.7,0,0,1-.09.71,12.37,12.37,0,0,0-.63,1.31,3.05,3.05,0,0,0-.12.64,17.35,17.35,0,0,1-.88,3.09,28.4,28.4,0,0,1-2.86,5.95,7.83,7.83,0,0,1-2,2.2c-.69.37-1.7,0-2.75-1.51a9,9,0,0,1-.84-7.3c1.2-4.76,5-7.92,9.21-7.9a9,9,0,0,1,6,2,8,8,0,0,1,2.82,5.21,9.34,9.34,0,0,1-2.29,7.44,11.32,11.32,0,0,1-5.41,3.09c-1.37.34-2.1.43-2.2.3s.05-.26.48-.4a10,10,0,0,0,5.47-4.3c1.25-2,1.58-4.27,1-7.3a5.78,5.78,0,0,0-3.18-4.34,6.08,6.08,0,0,0-3.43-.6m-1.55.4c-1.74.61-3.16,2.39-4.24,5.35a14.31,14.31,0,0,0-.82,4.84,6,6,0,0,0,.16,1.61c.16.61.44.88.82.81.87-.13,1.71-1.14,2.53-3a26.91,26.91,0,0,0,1.38-4.23l.66-2.63a4.62,4.62,0,0,0,.16-2,.86.86,0,0,0-.65-.7"/><path class="cls-2" d="M328.57,35.9H348l2.1-3,2.4,2.72c.49.6.43,1-.2,1.16h-3.78V48.58a4,4,0,0,1-.93,2.88,8.11,8.11,0,0,1-1.37,1c-.66.3-1,.15-1.13-.45,0-.09-.06-.57-.08-.68a3.59,3.59,0,0,0-.15-.68,2.24,2.24,0,0,0-1.05-.78l-1.63-.74s-.42-.11-.45-.4.17-.32.62-.28c.77.06,1.39.12,1.88.12s1-.08,1.15-.25.28-.52.21-1V36.8H328.88Zm12.05-7.78-.11.65a19.68,19.68,0,0,1,3.25.65c2.09.69,3.32,1.68,3.67,3s.1,2-.74,2.33a1.39,1.39,0,0,1-1.88-.65q-2-2.71-2.62-3.37a4.64,4.64,0,0,0-1.88-1.29,9.2,9.2,0,0,1-1.89,2.85,12.4,12.4,0,0,1-5.87,2.84c-1.32.38-1.75.13-1.17-.19l.89-.46a11.74,11.74,0,0,0,3.64-2.58,8.73,8.73,0,0,0,1.88-3.76h-7.33l-.32-.91h7.75a47.75,47.75,0,0,0,.21-4.78l2.7.44a4.3,4.3,0,0,1,.84.24c.8.39.78.86-.05,1.22l-.45.17c-.14,1.12-.25,2-.31,2.71h5.55l1.78-3L350.57,27c.47.53.42,1-.21,1.16Zm-5.24,17.75v1.42c0,.52-.17.82-.53.91a3.41,3.41,0,0,1-1.77.26c-.29-.09-.42-.44-.42-1V37.84l2.82,1.81h4.09l.83-1.81,2.52,2.85q.74.9-.21,1.29l-.31.13v4.14c0,.52-.14.83-.42.91a12.65,12.65,0,0,1-1.67.26c-.43,0-.64-.3-.64-.9v-.65Zm0-.91h4.29V40.55h-4.29Z"/><path class="cls-2" d="M400.39,30.38l-.48,1.8a3.19,3.19,0,0,0,1.14-.55,4.17,4.17,0,0,0,.32-.35c.33-.42.75-.4,1.45.2a1.55,1.55,0,0,1,.57.7c.21.61-.19,1-.89,1.31l-3.24,1.1c-1.08,3.54-1.89,6-2.43,7.52s-.9,2.46-1.22,3.2a1.9,1.9,0,0,1-1,1.2c-.38.13-.73-.1-1.05-.7a2.18,2.18,0,0,1,.08-2.51l.4-.5,1.3-2.9c.43-1,.86-2.17,1.3-3.5.11-.41.24-.84.32-1.21-.65.13-1.21.24-1.7.3a.94.94,0,0,1-1-.4,4.78,4.78,0,0,1-1.14-2c-.06-.54,0-.87.25-1a2.73,2.73,0,0,0,1.29,1.2,5.26,5.26,0,0,0,3-.4c.11-.47.24-1.11.4-1.91a11.75,11.75,0,0,0,.33-2c0-.34-.44-.77-1.14-1.1a.55.55,0,0,1,.2-.34.88.88,0,0,1,.31-.13,2.12,2.12,0,0,1,.69,0,2.66,2.66,0,0,1,1.24.6l.32.3c.76.73,1,1.27.65,1.6a1.32,1.32,0,0,0-.33.5m6.16,15.83a3.8,3.8,0,0,1-1.86,2.8,3.87,3.87,0,0,1-4.14,0,2.53,2.53,0,0,1-1.37-1.8,3.38,3.38,0,0,1,.48-2.5,3.63,3.63,0,0,1,1.95-1.51,7,7,0,0,1,2.51-.19L404,41.4c-.11-1.27-.16-2.1-.16-2.5a4.27,4.27,0,0,1,.56-2.41,5.18,5.18,0,0,1,1.78-1.4l1.47-.8a4.61,4.61,0,0,0-1.71-1.6,19.69,19.69,0,0,0-1.94-.91c-.27-.13-.36-.26-.24-.4a6.5,6.5,0,0,1,2.42-.1A5.26,5.26,0,0,1,410,32.89a2.38,2.38,0,0,1,.73,2.3.71.71,0,0,1-.89.6,2.13,2.13,0,0,1-.89-.3,2.07,2.07,0,0,0-2.43.4,1.85,1.85,0,0,0-.52.81,5.53,5.53,0,0,0,0,2.8c.19,1.07.41,2.43.57,4.1.43.21.86.41,1.3.6a10.38,10.38,0,0,1,2,1.31,2.23,2.23,0,0,1,1,2.4c-.22.74-.52,1.1-.9,1.1-.16,0-.37-.13-.64-.4a5.25,5.25,0,0,1-.57-.6,11.55,11.55,0,0,0-2.19-1.8M404.2,45a3.43,3.43,0,0,0-1.86-.29,3.36,3.36,0,0,0-1.79.6,1.49,1.49,0,0,0-.48,1.9,1.81,1.81,0,0,0,2.51.91q1.95-.7,1.62-3.12"/><path class="cls-2" d="M422.16,36.28a5.47,5.47,0,0,1-1.15.13c-.42-.08-.63-.43-.63-1V22.82l3.56,1.94h13.93l1.05-2.08,2.83,2.85q.84.78-.21,1.56l-.21.12v7.52a1,1,0,0,1-.52,1,5.65,5.65,0,0,1-1.78.39q-.84.14-.84-.51v-1.3H423.52V35.9l2,1.29H436.2l.94-1.81,2.72,2.33c.49.43.42.95-.21,1.55l-.31.26V51.05a1,1,0,0,1-.52,1,5,5,0,0,1-1.78.52c-.56.09-.84-.13-.84-.64v-1H425.3v1a.69.69,0,0,1-.52.77,6.14,6.14,0,0,1-2.31.26c-.2-.08-.31-.3-.31-.65ZM423.52,29h14.67V25.66H423.52Zm0,4.41h14.67v-3.5H423.52Zm1.78,7.77h10.9V38.1H425.3Zm0,4.14h10.9V42.11H425.3Zm0,4.66h10.9V46.25H425.3Z"/><path class="cls-2" d="M455.25,33.44a16.23,16.23,0,0,1,2.2,3.62,9.42,9.42,0,0,1,1.05,3.49,9.71,9.71,0,0,1-.21,3.5,3,3,0,0,1-2.3,2.59c-.49.09-.81,0-.94-.39a7.36,7.36,0,0,0-.11-1c-.13-.87-1-1-1.36-1v6.87a1.09,1.09,0,0,1-.74,1.16,1.77,1.77,0,0,1-1.46.13c-.21-.08-.31-.39-.31-.9v-28l2.72,1.68h2.72l.94-1.81L460,26.44c.42.61.34,1-.21,1.17l-.52.12Zm-1.67,9.83a2.11,2.11,0,0,0,1.89-.25c.48-.35.73-1.12.73-2.33A22,22,0,0,0,456,38.1a13.65,13.65,0,0,0-1.47-4.54l1.89-7.51h-2.83Zm13.2-.77A8.31,8.31,0,0,0,468,44.31a10,10,0,0,0,2.1,1.82A22.63,22.63,0,0,0,475,48.07c-.42.51-.8,1-1.16,1.55a24.39,24.39,0,0,0-1.15,2.21,12.26,12.26,0,0,1-3.76-3.5,20.5,20.5,0,0,1-2.42-4.92,17.23,17.23,0,0,1-1.15,3.5,10.37,10.37,0,0,1-5,4.39,9.29,9.29,0,0,1-3.35,1c-.7,0-.64-.4.42-.77a12.13,12.13,0,0,0,2.87-1.72A10,10,0,0,0,463,46.64a13.21,13.21,0,0,0,1.15-4.14h-2.41v1.43c0,.43-.46.68-1.36.77h-.73c-.29,0-.42-.17-.42-.52V34.6l2.83,1.68h2.3V32.79h-2.52l-.21-.78a18.72,18.72,0,0,1-4.34,3.08c-.28.17-.51-.08-.32-.26s.32-.31.46-.44a24.06,24.06,0,0,0,3.26-4.19,37.75,37.75,0,0,0,3.56-7.77l3,1.42c.47.3.41.7,0,.91l-.62.13a15.17,15.17,0,0,0,3.87,3.49,32,32,0,0,0,4.93,2.47,13.42,13.42,0,0,0-2.41,3.49L471.6,33a23.31,23.31,0,0,1-2.62-3,27.3,27.3,0,0,1-2.62-4.54,32.17,32.17,0,0,1-4.51,6.35h5l1.26-1.94,1.78,1.94c.35.43.28.73-.21.91h-2.83v3.49h2.62l.84-1.68,2.52,2.33c.48.43.41.82-.22,1.17l-.31.13v4.66a1,1,0,0,1-.42.9,2.61,2.61,0,0,1-1.36.26c-.49,0-.73-.21-.73-.64V42.5Zm-5-5.31V41.6h2.51c.07-.87.11-2.34.11-4.41Zm5.13,0c0,1.73,0,3.19-.1,4.41h3V37.19Z"/><path class="cls-2" d="M233.61,47.31a40.52,40.52,0,0,0-4.22.8c-1.73.45-2.78.72-3.14.8a1.48,1.48,0,0,1-1.36.13,11.41,11.41,0,0,1-.84-.9c-.29-.35-.57-.72-.83-1.1a1.81,1.81,0,0,1,.32-2,4.34,4.34,0,0,0,1,1.07,2,2,0,0,0,1.41.14c1.45-.18,6.46-.76,7.69-.94V40.35l-4.12.53-3,.54-.65.27a.88.88,0,0,1-.87-.27,6.77,6.77,0,0,1-1-1.21c-.65-1-.62-1.74.11-2.28.57.82,1,1.26,1.29,1.35s1.48-.14,4.23-.41l4-.4V33.66c-2.67.26-4.7.53-6.07.79a4.61,4.61,0,0,0-1,.27,2,2,0,0,1-1.2.14A4.73,4.73,0,0,1,223.53,33a1.61,1.61,0,0,1,.11-2.14,5.91,5.91,0,0,0,1.73,1.48,2.88,2.88,0,0,0,1.2,0c.64-.1,1.44-.18,2.38-.27l4.44-.54,1-1.47c1.66,1.51,2.56,2.54,2.71,3.08a.62.62,0,0,1-.21.67,3.39,3.39,0,0,1-.55.4l-.21,13.92a.83.83,0,0,1-.33.67c-1.08.8-1.84.72-2.28-.26Z"/><path class="cls-2" d="M288.37,47.31a41.05,41.05,0,0,0-4.22.8c-1.72.45-2.77.72-3.13.8a1.5,1.5,0,0,1-1.37.13c-.1-.06-.65-.69-.84-.9s-.56-.72-.83-1.1a1.83,1.83,0,0,1,.33-2,4.34,4.34,0,0,0,1,1.07,2,2,0,0,0,1.41.14c1.45-.18,6.46-.76,7.68-.94V40.35l-4.11.53-3,.54-.65.27a.88.88,0,0,1-.87-.27,7.3,7.3,0,0,1-1-1.21c-.64-1-.61-1.74.11-2.28.58.82,1,1.26,1.3,1.35s1.48-.14,4.22-.41l4-.4V33.66c-2.67.26-4.69.53-6.06.79a4.64,4.64,0,0,0-1,.27,2,2,0,0,1-1.19.14A4.73,4.73,0,0,1,278.3,33a1.61,1.61,0,0,1,.11-2.14,5.91,5.91,0,0,0,1.73,1.48,2.84,2.84,0,0,0,1.19,0c.65-.1,1.45-.18,2.39-.27l4.43-.54,1-1.47c1.66,1.51,2.57,2.54,2.71,3.08a.61.61,0,0,1-.22.67,2.78,2.78,0,0,1-.54.4l-.22,13.92a.82.82,0,0,1-.32.67c-1.08.8-1.84.72-2.28-.26Z"/><path class="cls-2" d="M196.53,36.49c-1.05-2.35-2.19-3.79-3.29-4.38a4.88,4.88,0,0,0-.58-.23c-.14-.06-.08-.16.19-.23a6.75,6.75,0,0,1,3-.1,4.28,4.28,0,0,1,2.66,1.7,3.39,3.39,0,0,1,.81,2.42,2.29,2.29,0,0,1-1,1.81c-.73.31-1.34,0-1.84-1m-1.34,7.41a7.32,7.32,0,0,0,1.19,1.34,1,1,0,0,0,1.3.13,33.09,33.09,0,0,0,5.95-3.75,41.63,41.63,0,0,0,4.62-3.95,55.91,55.91,0,0,0,5.45-6.29,22.78,22.78,0,0,0,1.34-2c.17-.28.27-.18.3-.16s.09.58-.45,1.89c-.84,2.06-2.6,5.79-7.31,10.91A53.68,53.68,0,0,1,200,48.85a4,4,0,0,0-.32.8.74.74,0,0,1-.44.54c-.5.27-1.65-.54-3.46-2.41a5,5,0,0,1-1-1.34,2.81,2.81,0,0,1,.44-2.54m-.05-18.55a6.48,6.48,0,0,1,5-.05,3.67,3.67,0,0,1,2.45,3.23,2.4,2.4,0,0,1-.38,1.57c-.61.9-1.3.88-2.07-.08-.24-.31-.47-.64-.7-.95a9.61,9.61,0,0,0-2.85-3,3.31,3.31,0,0,0-1.38-.47c-.2,0-.19-.14,0-.21m14.28,2.81a15.12,15.12,0,0,0-2-3.46c-.24-.3-.51-.49-.53-.57s.18-.15.63,0a5.67,5.67,0,0,1,3.58,2c.79,1.07.86,2,.21,2.81s-1.33.41-1.9-.75m.64-5.7c-.66-.38-.56-.44-.32-.45a10.85,10.85,0,0,1,2.47.33A4,4,0,0,1,214,23.42a2.11,2.11,0,0,1,.43,2.68c-.56.78-1.26.53-1.84-.54a8.22,8.22,0,0,0-2.56-3.1"/><path class="cls-2" d="M251.3,36.49c-1.06-2.35-2.19-3.79-3.29-4.38a5.64,5.64,0,0,0-.57-.23c-.15-.06-.1-.16.17-.23a6.8,6.8,0,0,1,3-.1,4.31,4.31,0,0,1,2.66,1.7,3.43,3.43,0,0,1,.8,2.42,2.26,2.26,0,0,1-1,1.81c-.73.31-1.34,0-1.84-1M250,43.9a7,7,0,0,0,1.19,1.34,1,1,0,0,0,1.3.13,33.44,33.44,0,0,0,5.95-3.75A41.63,41.63,0,0,0,263,37.67a57,57,0,0,0,5.45-6.29,22.78,22.78,0,0,0,1.34-2c.16-.28.27-.18.31-.16s.08.58-.45,1.89A35.92,35.92,0,0,1,262.35,42a53.68,53.68,0,0,1-7.63,6.84,4.84,4.84,0,0,0-.33.8.73.73,0,0,1-.43.54c-.5.27-1.66-.54-3.46-2.41a4.75,4.75,0,0,1-1-1.34A2.81,2.81,0,0,1,250,43.9m-.06-18.55a6.48,6.48,0,0,1,4.95-.05,3.66,3.66,0,0,1,2.46,3.23,2.34,2.34,0,0,1-.38,1.57c-.61.9-1.3.88-2.08-.08-.23-.31-.46-.64-.7-.95a9.6,9.6,0,0,0-2.84-3,3.31,3.31,0,0,0-1.38-.47c-.2,0-.19-.14,0-.21m14.29,2.81a14.75,14.75,0,0,0-2-3.46c-.24-.3-.51-.49-.53-.57s.18-.15.63,0a5.67,5.67,0,0,1,3.58,2c.79,1.07.86,2,.21,2.81s-1.32.41-1.9-.75m.63-5.7c-.66-.38-.55-.44-.31-.45a10.85,10.85,0,0,1,2.47.33,4,4,0,0,1,1.82,1.08,2.12,2.12,0,0,1,.43,2.68c-.57.78-1.26.53-1.84-.54a8.15,8.15,0,0,0-2.57-3.1"/><path class="cls-2" d="M368.72,41.33q-.21.78.42,0a19.23,19.23,0,0,0,1.79-3.1,43.82,43.82,0,0,0,1.77-4.67l.95-3,.21-.25c.28-.7.24-1.17-.11-1.43l-2.82-.9q-.12,2.58-.84,7.51a38.15,38.15,0,0,1-.95,4.4c-.14.44-.28.91-.42,1.42"/><path class="cls-2" d="M378.29,24.81a.9.9,0,0,0-.45-1.35L375,22.94V38a2.83,2.83,0,0,1-.1,1c-.07.18-.28.26-.63.26h-2.41c-.63,0-.7.14-.21.39s1.19.6,2.09,1a1.08,1.08,0,0,1,.53,1q0,1.7,1,1.32c.09,0,.56-.29.68-.36a6.26,6.26,0,0,0,1.39-1,2.19,2.19,0,0,0,.43-1.42V25.41a1.66,1.66,0,0,0,.55-.6"/><path class="cls-2" d="M380.35,36.93q-3,7.26-7.12,10.88a30.55,30.55,0,0,1-2.6,2.15c-.6.43-2.25,1.51-2.8,1.81s-.47.58.26.45a19.24,19.24,0,0,0,7.55-3.64,21.14,21.14,0,0,0,3.77-3.88c.84-1,1.75-2.28,2.72-3.75h.74q1-.27.21-1.17Z"/><path class="cls-2" d="M384.23,34.08q-.74-3.37-5.13-6.08c-.32-.18-.51-.23-.58-.17s-.07.24.16.55a15.62,15.62,0,0,1,2.51,6.35,5.66,5.66,0,0,0,.43,1.42,1.59,1.59,0,0,0,1,1,1.3,1.3,0,0,0,1.46-1,4,4,0,0,0,.11-2.07"/><path class="cls-2" d="M369.14,48.2c.6-.48.7-1.38.21-2.59a6.2,6.2,0,0,0-2.2-2.34,73.42,73.42,0,0,0,2-10.23l.21-.13c.56-.42.63-.86.21-1.29L367.26,29l-.95,1.82h-1.56c.13-.78.38-2.6.73-5.45a1.28,1.28,0,0,0,.33-.23,1,1,0,0,0,.13-.22,1.56,1.56,0,0,0,.11-.41.94.94,0,0,0-.57-.95l-2.41-.65c-.15,1.39-.42,4-.84,7.91h-2.51l.2.9h2.21c-.43,3.45-.81,6.35-1.16,8.68-.14.86-.28,1.64-.42,2.33s0,1.21.42,1.29a3.51,3.51,0,0,0,1.57.13c.22-.08.42-.73.63-1.94a4.43,4.43,0,0,1,1.36,1.42,19.17,19.17,0,0,1-.84,2.72,20.49,20.49,0,0,1-2,3.63,11.6,11.6,0,0,1-1.78,2.2.38.38,0,0,0,0,.43c.11.17.46,0,1-.56a23.63,23.63,0,0,0,3.35-3.36,30.09,30.09,0,0,0,1.89-3.11c.42.69.84,1.42,1.26,2.2s1.16.85,1.67.39M365.9,37.44a45.34,45.34,0,0,1-.95,4.67c-.49-.17-1-.34-1.67-.52L363.8,38l.84-6.22h1.78c-.14,2.07-.31,4-.52,5.69"/><path class="cls-1" d="M199.24,7.37c-.82.07-1,.3-1,1.22V14.1c0,1.93-.79,2.84-2.29,2.84a2,2,0,0,1-1.17-.3,1.91,1.91,0,0,1-.72-1.4.79.79,0,1,1,1.55,0c0,.39-.3.51-.3.85s.19.41.49.41c.5,0,.69-.36.69-1.16v-7c0-.74-.21-.91-1.09-1V7.05h3.8Z"/><path class="cls-1" d="M207.34,16c-2.24,0-3.82-1.87-3.82-4.52s1.64-4.57,3.89-4.57,3.77,1.91,3.77,4.56S209.58,16,207.34,16m0-8.67c-1.19,0-1.87,1.52-1.87,4.2s.69,4,1.92,4,1.91-1.38,1.91-4-.7-4.23-2-4.23"/><path class="cls-1" d="M220.16,7.37c-.81.07-.95.3-.95,1.22V14.1c0,1.93-.79,2.84-2.29,2.84a2,2,0,0,1-1.17-.3,1.91,1.91,0,0,1-.72-1.4.79.79,0,1,1,1.54,0c0,.39-.29.51-.29.85s.18.41.49.41c.49,0,.69-.36.69-1.16v-7c0-.74-.22-.91-1.09-1V7.05h3.79Z"/><path class="cls-1" d="M228.28,16c-2.24,0-3.82-1.87-3.82-4.52s1.63-4.57,3.88-4.57,3.78,1.91,3.78,4.56S230.52,16,228.28,16m0-8.67c-1.18,0-1.87,1.52-1.87,4.2s.7,4,1.93,4,1.9-1.38,1.9-4-.69-4.23-2-4.23"/><path class="cls-1" d="M236.54,11.06c-.29-1.64-.41-2.15-.41-2.36,0-.5.21-.82.6-.82s.61.3.61.78a20.29,20.29,0,0,1-.4,2.4Z"/><path class="cls-1" d="M243.57,11.92a2,2,0,0,0-.44-.91.92.92,0,0,0-.7-.35.61.61,0,0,0-.61.64c0,.38.26.66.89,1,.94.47,1.29.94,1.29,1.73a1.5,1.5,0,0,1-1.44,1.68,2.88,2.88,0,0,1-1-.25.53.53,0,0,0-.22-.07c-.08,0-.14.08-.24.31h-.23V13.84h.26c.19,1,.62,1.46,1.28,1.46a.66.66,0,0,0,.7-.71c0-.36-.26-.64-.9-1-.94-.47-1.33-1-1.33-1.71a1.5,1.5,0,0,1,1.47-1.61,1.89,1.89,0,0,1,.73.16.84.84,0,0,0,.29.08c.12,0,.18-.06.23-.22h.21v1.6Z"/><path class="cls-1" d="M258.07,11.05a2.28,2.28,0,0,1,2.08,2.25c0,1.37-1,2.41-3,2.41h-3.56v-.32c.79-.1,1-.28,1-1v-6c0-.75-.22-1-1-1V7.05h3.43c1.74,0,2.73.73,2.73,2.05,0,1-.46,1.63-1.72,1.94Zm-1.75-.12c1.35,0,1.68-.48,1.68-1.74s-.33-1.75-1.07-1.75c-.43,0-.61.19-.61.69Zm0,3.53c0,.61.2.84.68.84.84,0,1.29-.7,1.29-2s-.55-2-1.69-2h-.28Z"/><path class="cls-1" d="M264.11,15.53v-.27c.43-.12.5-.2.5-.71V11.4c0-.5-.1-.61-.51-.71v-.26h1.8v4.16c0,.47.13.61.45.67v.27Zm1.13-5.93a.78.78,0,0,1-.72-.85.74.74,0,1,1,1.45,0,.79.79,0,0,1-.73.85"/><path class="cls-1" d="M273.82,15.53h-3.58v-.28l2.19-4.47c-1.33,0-1.55.17-1.79,1.22h-.24l.07-1.57h3.46v.28l-2.16,4.46h.28c.75,0,1.06-.14,1.37-.65a2.74,2.74,0,0,0,.29-.76H274Z"/><path class="cls-1" d="M282.32,15.05a1.26,1.26,0,0,1-1,.63c-.46,0-.67-.2-.77-.76a1.91,1.91,0,0,1-1.48.76c-.6,0-1-.35-1-1.17a1.53,1.53,0,0,1,.63-1.24,5.84,5.84,0,0,1,1.87-.84v-.75c0-.71-.2-1-.75-1-.34,0-.61.14-.61.41a.43.43,0,0,0,.1.25.82.82,0,0,1,.18.47.63.63,0,0,1-.64.66c-.38,0-.6-.29-.6-.75,0-.89.73-1.39,1.78-1.39s1.83.53,1.83,1.48v2.88c0,.19.07.31.2.31a.13.13,0,0,0,.1,0l.09-.11Zm-1.82-2.23a1.39,1.39,0,0,0-1.14,1.33c0,.49.21.74.49.74a.72.72,0,0,0,.65-.44Z"/><path class="cls-1" d="M287.73,11.33c.44-.75.79-1,1.26-1a.8.8,0,0,1,.76.88c0,.44-.25.75-.59.75s-.41-.11-.56-.42-.19-.26-.27-.26c-.32,0-.56.5-.56,1.16v1.95c0,.71.1.86.67.91v.26H286v-.26c.41-.09.51-.21.51-.66V11.4c0-.52-.12-.64-.52-.71v-.26h1.78Z"/><path class="cls-1" d="M295.1,11.33c.44-.75.79-1,1.26-1a.8.8,0,0,1,.76.88c0,.44-.25.75-.59.75s-.4-.11-.56-.42-.19-.26-.26-.26c-.33,0-.57.5-.57,1.16v1.95c0,.71.1.86.67.91v.26h-2.47v-.26c.41-.09.5-.21.5-.66V11.4c0-.52-.11-.64-.51-.71v-.26h1.77Z"/><path class="cls-1" d="M304.35,14.29c-.56,1.05-1.05,1.39-1.85,1.39-1.13,0-1.9-1.12-1.9-2.63s.78-2.76,1.95-2.76a1.42,1.42,0,0,1,1.2.56,3.63,3.63,0,0,1,.55,2h-2.36c.06,1,.2,2.06,1.11,2.06.41,0,.7-.21,1.08-.75Zm-1.2-2.12a2.66,2.66,0,0,0-.09-1c-.13-.33-.24-.52-.51-.52-.43,0-.65.44-.65,1.77h1.25Z"/><path class="cls-1" d="M316.66,15.71v-.32l.34,0c.36,0,.5-.14.5-.42a6.34,6.34,0,0,0-.5-1.74h-2.43l-.14.43a5.49,5.49,0,0,0-.34,1.25c0,.33.24.47.88.52v.32h-2.18v-.32c.49-.1.65-.33,1.07-1.54l2.39-7h.3l2.4,6.69c.55,1.55.74,1.83,1.19,1.83v.32Zm-.91-6.13-1,3.11h2.11Z"/><path class="cls-1" d="M327.84,15.39a6.68,6.68,0,0,0-1.25.28V15c-.44.55-.74.73-1.24.73-1,0-1.69-1.08-1.69-2.6s.77-2.79,1.79-2.79c.43,0,.71.18,1.12.69V9c0-.51-.09-.59-.71-.64V8.05h2v6.36c0,.46.12.61.55.64v.25Zm-1.27-3.79c-.15-.42-.43-.69-.73-.69-.55,0-.8.66-.8,2.08s.24,2.07.73,2.07a.77.77,0,0,0,.62-.41,1.28,1.28,0,0,0,.18-.36Z"/><path class="cls-1" d="M336.24,10.69c-.29,0-.37.1-.55.61l-1.49,4.38H334l-1.12-3.27c-.19-.55-.54-1.43-.62-1.56s-.11-.12-.32-.16v-.26h2.34v.26l-.17,0c-.23,0-.33.1-.33.27a.89.89,0,0,0,.09.34l.73,2.25.68-2a1.57,1.57,0,0,0,.1-.49c0-.27-.11-.35-.51-.37v-.26h1.41Z"/><path class="cls-1" d="M343.29,14.29c-.56,1.05-1.05,1.39-1.85,1.39-1.13,0-1.9-1.12-1.9-2.63s.78-2.76,1.95-2.76a1.42,1.42,0,0,1,1.2.56,3.63,3.63,0,0,1,.55,2h-2.36c.06,1,.2,2.06,1.11,2.06.41,0,.7-.21,1.08-.75Zm-1.2-2.12a2.66,2.66,0,0,0-.09-1c-.13-.33-.24-.52-.51-.52-.43,0-.65.44-.65,1.77h1.25Z"/><path class="cls-1" d="M349.48,15.53v-.27c.32,0,.43-.22.43-.66V12c0-.62-.16-.94-.48-.94a.9.9,0,0,0-.65.37.67.67,0,0,0-.16.27V14.6c0,.41.1.6.45.66v.27h-2.24v-.27c.42-.1.49-.23.49-.7V11.37c0-.48-.08-.6-.49-.68v-.26h1.78v.83h0a1.44,1.44,0,0,1,1.33-1c.76,0,1.26.61,1.26,1.57V14.6c0,.49.09.63.46.66v.27Z"/><path class="cls-1" d="M358.12,14.41c-.39.91-.76,1.25-1.39,1.25s-1-.44-1-1.18V10.91h-.5v-.29a6.72,6.72,0,0,0,1.56-2.06H357v1.87h.89v.48H357v3.3c0,.44.11.66.37.66s.34-.16.53-.58Z"/><path class="cls-1" d="M366,15.38a4,4,0,0,0-1.23.29V15a1.69,1.69,0,0,1-1.35.73c-.78,0-1.25-.57-1.25-1.6V11.41c0-.51-.07-.63-.45-.72v-.26h1.75v3.69c0,.62.19.84.52.84s.48-.14.77-.52v-3c0-.5-.1-.65-.57-.7v-.26h1.87v3.93c0,.49.12.67.53.69v.25Z"/><path class="cls-1" d="M372,11.33c.44-.75.79-1,1.26-1a.79.79,0,0,1,.75.88c0,.44-.24.75-.58.75s-.41-.11-.56-.42-.19-.26-.27-.26c-.32,0-.57.5-.57,1.16v1.95c0,.71.11.86.68.91v.26h-2.48v-.26c.41-.09.51-.21.51-.66V11.4c0-.52-.12-.64-.52-.71v-.26H372Z"/><path class="cls-1" d="M381.08,14.29c-.56,1.05-1.06,1.39-1.85,1.39-1.13,0-1.91-1.12-1.91-2.63s.79-2.76,1.95-2.76a1.39,1.39,0,0,1,1.2.56,3.63,3.63,0,0,1,.55,2h-2.35c.05,1,.19,2.06,1.11,2.06.4,0,.69-.21,1.07-.75Zm-1.21-2.12a3,3,0,0,0-.08-1c-.13-.33-.24-.52-.52-.52s-.65.44-.65,1.77h1.25Z"/><path class="cls-1" d="M397.36,12.36c-.82.1-.93.47-.93,1.28v1.51a5.73,5.73,0,0,1-3,.8c-2.17,0-3.84-1.74-3.84-4.48,0-2.55,1.6-4.61,3.76-4.61a3.59,3.59,0,0,1,1.68.45,1.2,1.2,0,0,0,.5.18c.2,0,.31-.13.47-.59h.3v3H396A5.23,5.23,0,0,0,395,8a2.08,2.08,0,0,0-1.49-.72c-1.26,0-2,1.45-2,4.1a6.9,6.9,0,0,0,.52,3,1.7,1.7,0,0,0,1.67,1.11c.77,0,1-.43,1-1.09V13.3c0-.66-.17-.88-1.1-.94V12h3.72Z"/><path class="cls-1" d="M402.86,15.68c-1.17,0-2.1-1.11-2.1-2.68s.91-2.71,2.14-2.71S405,11.42,405,13s-.9,2.69-2.11,2.69m0-5c-.57,0-.74.58-.74,2.48,0,1.6.2,2.22.74,2.22s.73-.58.73-2.22c0-1.9-.18-2.48-.73-2.48"/><path class="cls-1" d="M408.41,15.53v-.27c.32,0,.48-.21.48-.7V9c0-.41-.16-.68-.48-.71V8.05h1.78v6.51c0,.51.16.69.47.7v.27Z"/><path class="cls-1" d="M418.44,15.39a6.56,6.56,0,0,0-1.24.28V15a1.46,1.46,0,0,1-1.24.73c-1,0-1.69-1.08-1.69-2.6s.76-2.79,1.79-2.79c.43,0,.71.18,1.11.69V9c0-.51-.08-.59-.71-.64V8.05h2v6.36c0,.46.12.61.55.64v.25Zm-1.27-3.79c-.14-.42-.42-.69-.73-.69-.54,0-.79.66-.79,2.08s.23,2.07.73,2.07a.76.76,0,0,0,.61-.41,1,1,0,0,0,.18-.36Z"/><path class="cls-1" d="M426.27,14.29c-.56,1.05-1,1.39-1.85,1.39-1.13,0-1.9-1.12-1.9-2.63s.78-2.76,2-2.76a1.39,1.39,0,0,1,1.19.56,3.46,3.46,0,0,1,.55,2h-2.35c.06,1,.2,2.06,1.11,2.06.41,0,.69-.21,1.08-.75Zm-1.2-2.12a2.66,2.66,0,0,0-.09-1c-.13-.33-.24-.52-.51-.52-.43,0-.65.44-.65,1.77h1.25Z"/><path class="cls-1" d="M432,15.53v-.27c.32,0,.43-.22.43-.66V12c0-.62-.16-.94-.48-.94a.89.89,0,0,0-.65.37.67.67,0,0,0-.16.27V14.6c0,.41.1.6.45.66v.27h-2.24v-.27c.42-.1.49-.23.49-.7V11.37c0-.48-.08-.6-.49-.68v-.26h1.78v.83h0a1.44,1.44,0,0,1,1.33-1c.76,0,1.26.61,1.26,1.57V14.6c0,.49.09.63.46.66v.27Z"/><path class="cls-1" d="M452.61,7.37c-.35,0-.6.31-.74.82L449.7,15.9h-.29l-1.85-6.11-2,6.11h-.3L443,8.19c-.19-.62-.29-.74-.75-.82V7.05h3.18v.32c-.56,0-.69.17-.69.54a1.33,1.33,0,0,0,.07.42l1.3,4.67,1.28-3.95L447,7.82c-.1-.32-.34-.42-.78-.45V7.05h3.37v.32l-.14,0c-.47,0-.64.15-.64.46a3.09,3.09,0,0,0,.16.71l1.16,4.31,1.21-4.39a1.77,1.77,0,0,0,.08-.54c0-.4-.16-.53-.75-.57V7.05h2Z"/><path class="cls-1" d="M455.78,15.53v-.27c.43-.12.5-.2.5-.71V11.4c0-.5-.1-.61-.51-.71v-.26h1.8v4.16c0,.47.12.61.45.67v.27Zm1.13-5.93a.78.78,0,0,1-.72-.85.74.74,0,1,1,1.45,0,.79.79,0,0,1-.73.85"/><path class="cls-1" d="M464.3,15.53v-.27c.31,0,.43-.22.43-.66V12c0-.62-.16-.94-.48-.94a.89.89,0,0,0-.65.37.57.57,0,0,0-.16.27V14.6c0,.41.1.6.45.66v.27h-2.25v-.27c.42-.1.5-.23.5-.7V11.37c0-.48-.08-.6-.5-.68v-.26h1.79v.83h0a1.42,1.42,0,0,1,1.32-1c.77,0,1.26.61,1.26,1.57V14.6c0,.49.1.63.46.66v.27Z"/><path class="cls-1" d="M473.65,15.39a6.87,6.87,0,0,0-1.25.28V15a1.43,1.43,0,0,1-1.24.73c-1,0-1.69-1.08-1.69-2.6s.77-2.79,1.8-2.79c.43,0,.71.18,1.11.69V9c0-.51-.09-.59-.71-.64V8.05h2v6.36c0,.46.12.61.55.64v.25Zm-1.27-3.79c-.14-.42-.42-.69-.73-.69-.54,0-.79.66-.79,2.08s.23,2.07.72,2.07a.77.77,0,0,0,.62-.41,1.28,1.28,0,0,0,.18-.36Z"/><path class="cls-1" d="M33.86,1.86C28.85,2.23,28,2.91,28,8.91V40.84C28,53,21.63,58.61,12.91,58.61c-5,0-9.42-2.11-11.64-5.8A10.56,10.56,0,0,1,0,47.19c.18-3.25,2.22-5.64,5.17-5.64s4.45,2.37,4.2,5.55c-.2,2.49-2.17,3.52-2.17,5.34s2.14,3.83,4.92,3.84c3.42,0,5-3.49,5-8.09V7.35c0-5-1.33-5.27-6.75-5.49V0H33.86Z"/><path class="cls-1" d="M62.83.8c-13.89,0-23.6,11.94-23.6,26.62s9.71,26.63,23.6,26.63S86.44,42.11,86.44,27.42,76.73.8,62.83.8m0,49.35c-8,0-13.53-9-13.53-22.73S54.78,4.7,62.83,4.7s13.54,9.05,13.54,22.72S70.89,50.15,62.83,50.15"/><path class="cls-1" d="M124.08,1.86c-5,.37-5.88,1.05-5.88,7.05V40.84c0,12.15-6.34,17.77-15.06,17.77-5,0-9.43-2.11-11.65-5.8a10.75,10.75,0,0,1-1.25-5.62c.19-3.25,2.23-5.64,5.18-5.64s4.45,2.37,4.2,5.55c-.2,2.49-2.17,3.52-2.17,5.34s2.14,3.83,4.92,3.84c3.42,0,5-3.49,5-8.09V7.35c0-5-1.34-5.27-6.75-5.49V0h23.45Z"/><path class="cls-2" d="M152.91.8C139,.8,129.3,12.74,129.3,27.42S139,54.05,152.91,54.05s23.61-11.94,23.61-26.63S166.81.8,152.91.8"/><path class="cls-1" d="M142.29,43.64a3.4,3.4,0,0,1,6,3.2,16.79,16.79,0,0,0,4,.61V34c-.88,2.05-2.72,5-6,4.62A5.07,5.07,0,0,1,142,32.82c.28-2.54,2.1-4.56,5.52-6.68,2.14-1.34,4.11-3,5-4.94-5-.14-11.34-2.56-13.75-6.1A19,19,0,0,0,137.09,18h0a4.09,4.09,0,0,1-1.93,7.88c0,.5-.05,1-.05,1.5A24.28,24.28,0,0,0,135.4,31a3.41,3.41,0,0,1,2,6.47,18.64,18.64,0,0,0,4.88,6.25l0,0"/><path class="cls-1" d="M166.56,33.4A3.31,3.31,0,0,1,170.42,31a24.31,24.31,0,0,0,.26-3.55c0-.5,0-1,0-1.49a4,4,0,0,1-4.36-2.85,4,4,0,0,1,2.42-5h0a19.83,19.83,0,0,0-1.61-2.94c-2.42,3.54-8.77,6-13.76,6.1.86,1.95,2.83,3.6,5,4.94,3.41,2.12,5.23,4.14,5.51,6.68a5.09,5.09,0,0,1-4.31,5.85c-3.27.38-5.11-2.58-6-4.62v13.4a16.72,16.72,0,0,0,4-.61,3.4,3.4,0,0,1,6-3.2l0,.06a18.66,18.66,0,0,0,4.88-6.26,3.31,3.31,0,0,1-1.88-4"/><path class="cls-1" d="M154.9,16a2,2,0,1,1-2-2,2,2,0,0,1,2,2"/><path class="cls-1" d="M145.89,13.33c2.11-.87,3.33-3.09,2.72-4.95-.05-.14-.11-.28-.17-.41a16.48,16.48,0,0,0-7.22,4.11,3.64,3.64,0,0,0,4.67,1.25"/><path class="cls-1" d="M157.38,8c-.06.13-.12.27-.17.41-.61,1.86.61,4.08,2.72,4.95a3.65,3.65,0,0,0,4.68-1.25A16.57,16.57,0,0,0,157.38,8"/></g></g></svg>